<svg width="65" height="57" viewBox="0 0 65 57" fill="none" xmlns="http://www.w3.org/2000/svg">
<rect x="25" y="34" width="16" height="19" rx="5" fill="#FF0303"/>
<path d="M35.3067 1.17503C35.0015 0.80724 34.6196 0.51135 34.1879 0.3083C33.7563 0.105249 33.2855 0 32.809 0C32.3324 0 31.8616 0.105249 31.43 0.3083C30.9984 0.51135 30.6164 0.80724 30.3112 1.17503C25.5824 6.88106 16.1313 13.7505 10.687 16.8029C10.2463 17.0496 9.86885 17.396 9.58437 17.8146C9.29989 18.2332 9.1162 18.7125 9.04783 19.2147L4.76784 50.4639H3.25228C2.38972 50.4639 1.56249 50.8082 0.95257 51.4211C0.34265 52.034 0 52.8652 0 53.7319C0 54.5987 0.34265 55.4299 0.95257 56.0428C1.56249 56.6557 2.38972 57 3.25228 57H61.7477C62.6103 57 63.4375 56.6557 64.0474 56.0428C64.6574 55.4299 65 54.5987 65 53.7319C65 52.8652 64.6574 52.034 64.0474 51.4211C63.4375 50.8082 62.6103 50.4639 61.7477 50.4639H60.8566L56.5701 19.2147C56.5024 18.7131 56.3197 18.2342 56.0364 17.8156C55.7531 17.3971 55.3769 17.0504 54.9375 16.8029C49.4931 13.7505 40.042 6.88106 35.3067 1.18157V1.17503ZM48.3809 50.4574C43.1382 42.9212 39.3656 35.4635 35.8661 21.9599C35.6846 21.2593 35.2767 20.6391 34.7064 20.1966C34.1362 19.7541 33.4359 19.5145 32.7154 19.5152C31.9949 19.516 31.2951 19.7571 30.7257 20.2007C30.1564 20.6444 29.7498 21.2654 29.5697 21.9664C25.719 37.0518 21.1983 44.7186 17.0159 50.4704H11.3309L15.2792 21.6919C20.3397 18.6591 27.6509 13.3453 32.809 8.10985C37.9671 13.3453 45.2847 18.6591 50.3452 21.6919L54.287 50.4704H48.3874L48.3809 50.4574ZM40.5754 50.4574H24.8994C27.5468 46.3265 30.2202 41.2022 32.7179 34.0909C35.0205 40.6205 37.5573 45.6925 40.5624 50.4639L40.5754 50.4574Z" fill="white"/>
</svg>
