<svg width="65" height="71" viewBox="0 0 65 71" fill="none" xmlns="http://www.w3.org/2000/svg">
<rect x="12" y="9" width="32" height="37" rx="10" fill="#FF0303"/>
<path d="M28.4641 0C35.376 0.000449622 42.0516 2.50943 47.2459 7.05894C52.4402 11.6085 55.7984 17.8878 56.6941 24.7257L64.6999 37.2892C65.2265 38.1163 65.1197 39.3482 63.8993 39.8736L56.929 42.8485V53.25C56.929 55.133 56.1792 56.9389 54.8447 58.2705C53.5101 59.602 51.7001 60.35 49.8128 60.35H42.7001L42.6966 71H10.6736V57.8863C10.6736 53.6973 9.12229 49.7319 6.24734 46.1535C2.89474 41.9771 0.79293 36.9405 0.184055 31.6243C-0.42482 26.308 0.484016 20.9282 2.80586 16.1048C5.1277 11.2814 8.76807 7.21052 13.3076 4.36122C17.8471 1.51193 23.101 0.000131915 28.4641 0ZM26.5783 20.4587C26.0041 19.8652 25.3171 19.3918 24.5575 19.066C23.7979 18.7403 22.9808 18.5687 22.1541 18.5614C21.3273 18.5541 20.5073 18.7111 19.742 19.0233C18.9767 19.3355 18.2814 19.7967 17.6967 20.3799C17.1119 20.9631 16.6494 21.6566 16.3362 22.42C16.0229 23.1835 15.8652 24.0015 15.8722 24.8264C15.8793 25.6513 16.0509 26.4665 16.377 27.2245C16.7032 27.9825 17.1774 28.6681 17.772 29.2414L28.4641 39.9127L39.1562 29.2414C39.7508 28.6681 40.2251 27.9825 40.5512 27.2245C40.8774 26.4665 41.049 25.6513 41.056 24.8264C41.0631 24.0015 40.9053 23.1835 40.5921 22.42C40.2789 21.6566 39.8164 20.9631 39.2316 20.3799C38.6469 19.7967 37.9516 19.3355 37.1863 19.0233C36.421 18.7111 35.601 18.5541 34.7742 18.5614C33.9475 18.5687 33.1304 18.7403 32.3708 19.066C31.6112 19.3918 30.9242 19.8652 30.3499 20.4587L28.4641 22.3402L26.5783 20.4587Z" fill="white"/>
</svg>
