<svg width="45" height="65" viewBox="0 0 45 65" fill="none" xmlns="http://www.w3.org/2000/svg">
<rect x="8" y="27" width="32" height="37" rx="10" fill="#FF0303"/>
<path d="M22.1277 0C24.8363 0 27.4339 1.02723 29.3492 2.85571C31.2644 4.68419 32.3404 7.16414 32.3404 9.75C32.3404 12.3359 31.2644 14.8158 29.3492 16.6443C27.4339 18.4728 24.8363 19.5 22.1277 19.5C19.4191 19.5 16.8214 18.4728 14.9061 16.6443C12.9909 14.8158 11.9149 12.3359 11.9149 9.75C11.9149 7.16414 12.9909 4.68419 14.9061 2.85571C16.8214 1.02723 19.4191 0 22.1277 0ZM22.1277 22.75C27.6766 22.75 32.7489 23.8875 37.4468 26.1625C42.0085 28.47 44.2553 31.2325 44.2553 34.4825V53.235C44.2553 56.875 41.3277 59.93 35.3702 62.3675V55.25C35.3702 52.1625 32.4426 49.985 26.5872 48.6525C24.6809 48.23 23.183 48.035 22.1277 48.035C19.166 48.035 16.3404 48.5875 13.7532 49.725C11.1319 50.83 9.56596 52.26 9.05532 53.9825C13.617 55.705 17.9745 56.5825 22.1277 56.5825L25.5319 56.2575V64.805L22.1277 65C17.5703 65.0061 13.0611 64.1098 8.88511 62.3675C2.92766 59.93 0 56.875 0 53.235V34.4825C0 31.2325 2.24681 28.47 6.80851 26.1625C11.5064 23.8875 16.6128 22.75 22.1277 22.75ZM22.1277 29.25C20.3219 29.25 18.5902 29.9348 17.3133 31.1538C16.0365 32.3728 15.3191 34.0261 15.3191 35.75C15.3191 37.4739 16.0365 39.1272 17.3133 40.3462C18.5902 41.5652 20.3219 42.25 22.1277 42.25C23.9334 42.25 25.6652 41.5652 26.942 40.3462C28.2188 39.1272 28.9362 37.4739 28.9362 35.75C28.9362 34.0261 28.2188 32.3728 26.942 31.1538C25.6652 29.9348 23.9334 29.25 22.1277 29.25Z" fill="white"/>
</svg>
